<svg id="Layer_1" data-name="Layer 1" xmlns="http://www.w3.org/2000/svg" xmlns:xlink="http://www.w3.org/1999/xlink" viewBox="0 0 155.91 90.29"><defs><style>.cls-1{fill:none;}.cls-2{clip-path:url(#clip-path);}.cls-3,.cls-8{fill:#fff;}.cls-4{font-size:7.91px;font-family:Arial;}.cls-4,.cls-9{fill:#1d1d1b;}.cls-5{fill:#164194;}.cls-6{fill:#ffed00;}.cls-6,.cls-7,.cls-8,.cls-9{fill-rule:evenodd;}.cls-7{fill:#0077be;}</style><clipPath id="clip-path" transform="translate(0 -0.21)"><rect class="cls-1" width="155.91" height="90.71"/></clipPath></defs><title>wesse-reg-v2rv</title><g class="cls-2"><rect class="cls-3" width="155.91" height="90.29"/><text class="cls-4" transform="translate(23.68 68.33)">Euroopa Liit</text><text class="cls-4" transform="translate(29.83 76.4)">Euroopa</text><text class="cls-4" transform="translate(4.55 84.47)">Regionaalarengu Fond</text><rect class="cls-5" x="5.66" y="5.52" width="77.93" height="52.13"/><polygon class="cls-6" points="45.2 13.11 47.45 13.11 45.63 14.47 46.34 16.63 44.53 15.3 42.73 16.63 43.44 14.47 41.62 13.11 43.86 13.11 44.53 11.02 45.2 13.11"/><polygon class="cls-6" points="45.3 47.85 47.54 47.85 45.74 49.21 46.43 51.36 44.63 50.03 42.83 51.36 43.54 49.21 41.72 47.85 43.95 47.85 44.63 45.75 45.3 47.85"/><polygon class="cls-6" points="53.9 45.55 56.14 45.55 54.33 46.91 55.03 49.05 53.23 47.73 51.42 49.05 52.14 46.91 50.31 45.55 52.55 45.55 53.23 43.44 53.9 45.55"/><polygon class="cls-6" points="53.9 15.4 56.14 15.4 54.33 16.76 55.03 18.91 53.23 17.59 51.42 18.91 52.14 16.76 50.31 15.4 52.55 15.4 53.23 13.3 53.9 15.4"/><polygon class="cls-6" points="60.28 21.78 62.52 21.78 60.72 23.14 61.42 25.3 59.62 23.97 57.81 25.3 58.52 23.14 56.69 21.78 58.94 21.78 59.62 19.69 60.28 21.78"/><polygon class="cls-6" points="60.28 39.25 62.52 39.25 60.72 40.61 61.42 42.76 59.62 41.44 57.81 42.76 58.52 40.61 56.69 39.25 58.94 39.25 59.62 37.15 60.28 39.25"/><polygon class="cls-6" points="62.67 30.39 64.92 30.39 63.11 31.74 63.81 33.9 62.01 32.57 60.2 33.9 60.92 31.74 59.09 30.39 61.33 30.39 62.01 28.28 62.67 30.39"/><polygon class="cls-6" points="36.43 15.43 38.68 15.43 36.87 16.79 37.57 18.93 35.77 17.61 33.96 18.93 34.67 16.79 32.85 15.43 35.09 15.43 35.77 13.32 36.43 15.43"/><polygon class="cls-6" points="30.22 21.81 32.47 21.81 30.66 23.16 31.36 25.32 29.56 23.99 27.76 25.32 28.47 23.16 26.64 21.81 28.88 21.81 29.56 19.71 30.22 21.81"/><polygon class="cls-6" points="27.92 30.41 30.16 30.41 28.36 31.76 29.06 33.92 27.26 32.59 25.46 33.92 26.16 31.76 24.34 30.41 26.58 30.41 27.26 28.31 27.92 30.41"/><polygon class="cls-6" points="30.22 39.27 32.47 39.27 30.66 40.63 31.36 42.78 29.56 41.46 27.76 42.78 28.47 40.63 26.64 39.27 28.88 39.27 29.56 37.17 30.22 39.27"/><polygon class="cls-6" points="36.52 45.57 38.76 45.57 36.95 46.93 37.66 49.08 35.86 47.75 34.05 49.08 34.76 46.93 32.94 45.57 35.18 45.57 35.86 43.47 36.52 45.57"/><path class="cls-7" d="M127,16.12a37.45,37.45,0,0,1,16.53,5.6l0.33,0.22a38.07,38.07,0,0,0-54.58-8,26.88,26.88,0,0,1,14.19,7.79A37.49,37.49,0,0,1,127,16.12" transform="translate(0 -0.21)"/><path class="cls-8" d="M150.4,40.07h0s0,0,0,.05v0" transform="translate(0 -0.21)"/><path class="cls-9" d="M150.43,40.5l-0.06-.75a36.5,36.5,0,0,0-6.51-17.81l-0.33-.22a37.6,37.6,0,0,0-40.05,0,27,27,0,0,1,7.43,16.39,27.44,27.44,0,0,1,0,4.79,27,27,0,0,1-9.11,17.83l0.06-.05a66.9,66.9,0,0,1,43.18-8,23.73,23.73,0,0,1-5.15,3.3,80.73,80.73,0,0,0,9.4-3.65h0a35,35,0,0,0,1.16-11.85" transform="translate(0 -0.21)"/><path class="cls-8" d="M149.77,39.64c-4.83-3.27-8.8-5.24-17.21-6a37.46,37.46,0,0,0-18.07,2.78,25.69,25.69,0,0,1,0,4.72,25.39,25.39,0,0,1-10.76,18.5c15.3-8.8,29.21-10,41-8.18,0.78,0.12,3.2.54,4.32,0.84a39.21,39.21,0,0,0,.72-12.65" transform="translate(0 -0.21)"/><text class="cls-4" transform="translate(118.23 68.36)">Eesti</text><text class="cls-4" transform="translate(101.96 76.39)">tuleviku heaks</text></g></svg>